<?xml version="1.0" encoding="utf-8"?>
<!-- Generator: Adobe Illustrator 26.0.0, SVG Export Plug-In . SVG Version: 6.00 Build 0)  -->
<svg version="1.1" id="Capa_1" xmlns="http://www.w3.org/2000/svg" xmlns:xlink="http://www.w3.org/1999/xlink" x="0px" y="0px"
	 viewBox="0 0 300 91.2" style="enable-background:new 0 0 300 91.2;" xml:space="preserve">
<style type="text/css">
	.st0{fill-rule:evenodd;clip-rule:evenodd;fill:#FFFFFF;}
	.st1{enable-background:new    ;}
	.st2{fill:#FFFFFF;}
</style>
<path class="st0" d="M192.9,47.7c0,1.4,0.3,2.8,1,4c0.6,1.2,1.5,2.2,2.6,2.9c1.2,0.8,2.5,1.4,3.9,1.7c1.5,0.4,3.1,0.4,4.6,0.2
	c1.7-0.2,3.4-0.7,5-1.4c1.5-0.7,2.8-1.7,4-2.8c1.1-1.1,2-2.4,2.7-3.8c0.7-1.3,1-2.8,1-4.3c0-1.4-0.4-2.8-1.1-4
	c-0.7-1.2-1.6-2.2-2.8-3c-1.2-0.8-2.6-1.4-4-1.6c-1.6-0.3-3.2-0.3-4.8,0c-1.7,0.3-3.3,0.8-4.8,1.6c-1.4,0.7-2.7,1.7-3.8,2.8
	c-1,1-1.9,2.3-2.5,3.6C193.3,44.9,192.9,46.3,192.9,47.7 M252.9,50.9c2-0.2,4-0.8,5.9-1.6c1.8-0.8,3.4-1.8,4.9-3.1
	c1.4-1.2,2.5-2.6,3.4-4.2c0.8-1.5,1.3-3.2,1.3-4.9c0-1.5-0.5-3-1.4-4.3c-0.9-1.3-2.1-2.5-3.5-3.3c-1.5-0.9-3.2-1.5-5-1.8
	c-1.9-0.3-3.9-0.3-5.8,0c-1.9,0.3-3.8,0.9-5.6,1.8c-1.7,0.9-3.2,1.9-4.6,3.2c-1.3,1.2-2.3,2.6-3.1,4.1c-0.7,1.4-1.1,2.9-1.1,4.4
	c0,1.5,0.4,3,1.2,4.2c0.8,1.3,1.9,2.4,3.2,3.2c1.4,0.9,3,1.5,4.6,1.9C249.1,51,251,51.1,252.9,50.9L252.9,50.9z M204.9,23.4
	c3.5-0.7,7-0.7,10.5-0.1c3.2,0.5,6.3,1.7,9.1,3.4c1.1,0.7,2.1,1.5,3.1,2.4c2.2-2.9,4.9-5.4,7.8-7.5c5.2-3.7,11.1-6.2,17.4-7.2
	l1.9-0.4c0.6-0.1,1.2-0.2,1.9-0.2c3.9-0.4,7.9-0.2,11.8,0.6c3.5,0.7,6.9,2.1,9.9,4c2.8,1.8,5.1,4.2,6.8,7c1.7,2.8,2.6,6,2.5,9.3
	c0,6.5,0.1,13,0.1,19.5c0,2-1,3.8-3,5.4c-1.9,1.5-4.3,2.5-6.8,2.7c-3.4,0.3-6.2-0.6-8.2-2.7c-0.4,0.2-0.9,0.4-1.3,0.6
	c-0.4,0.2-0.8,0.4-1.1,0.6c-2.2,1-4.5,1.8-6.9,2.4c-2.5,0.6-5,1.1-7.5,1.3c-5.9,0.7-12-0.2-17.5-2.5c-2.8-1.2-5.4-2.9-7.6-5.1
	c-0.9,1.1-1.9,2.2-3,3.2c-2.7,2.5-5.7,4.5-9.1,6c-3.4,1.5-7.1,2.4-10.8,2.8c-4.1,0.4-8.2,0-12.1-1.2c0,3.5,0,7,0,10.5
	c0,1.6-0.8,3.2-2,4.2c-1.3,1.2-3.1,1.9-4.9,2c-1.6,0.1-3.2-0.3-4.5-1.3c-1.2-0.8-2-2.2-2-3.8c-0.1-4.9,0-9.9,0-14.9s0-9.9,0-14.9
	c0-3.1,0.8-6.2,2.1-9c1.3-2.7,3-5.2,5.1-7.3c2.3-2.5,5-4.5,8-6.2C197.9,25.3,201.3,24,204.9,23.4z"/>
<path class="st0" d="M104.6,24.8c2.7-0.6,5,1.3,5,4.3c0,3-2.1,5.6-5,6.4c-2.7,0.5-4.9-1.4-4.8-4.3C99.8,28.2,101.8,25.6,104.6,24.8
	 M166.3,40.3c-1.4-0.6-3-0.9-4.5-0.8c-1.6,0-3.2,0.5-4.7,1.2c-1.5,0.7-2.8,1.7-3.9,3c-1,1.2-1.7,2.6-2.2,4.1L166.3,40.3z M179.6,46
	c-0.5,0.3-1,0.6-1.5,0.8c-8.1,3.7-15.8,7.3-23.3,10.7c2.8,1.5,6.3,1.6,9.1,0.1c0.8-0.3,1.6-0.8,2.3-1.3c0.5-0.4,1-0.8,1.5-1.3
	c0.4-0.4,0.8-0.8,1.3-1.2c0.5-0.4,1.1-0.8,1.7-1c1.2-0.5,2.4-0.7,3.7-0.5c1.1,0.1,2.1,0.5,3,1.2c0.8,0.6,1.4,1.5,1.7,2.6
	c0.3,1.2,0.2,2.4-0.4,3.5c-1.1,1.9-2.6,3.5-4.5,4.8c-1.9,1.3-3.9,2.5-6,3.4c-2.7,1.3-5.6,1.9-8.5,2c-2.7,0.1-5.4-0.3-8-1.2
	c-2.4-0.9-4.6-2.2-6.5-4c-0.9-0.8-1.6-1.7-2.3-2.7c-0.1,0.3-0.2,0.6-0.4,0.8c-0.8,1.8-1.9,3.4-3.2,4.8c-1.3,1.4-2.9,2.5-4.6,3.4
	c-1.7,0.9-3.5,1.4-5.3,1.6c-3,0.4-6-0.4-8.5-2.2c-1.1,1.1-2.4,2-3.9,2.6c-1.3,0.6-2.8,1-4.2,1.1c-3.2,0.3-6.4-0.8-8.7-3
	c-1.1-1.1-2-2.3-2.5-3.8c-0.6-1.5-0.9-3.1-0.9-4.7v-9c0-3,0.1-6,0-9c0-0.6,0.1-1.3,0.3-1.9c0.2-0.6,0.6-1.2,1-1.7
	c0.4-0.5,0.9-0.9,1.4-1.3c0.5-0.3,1.1-0.6,1.8-0.7c1.1-0.2,2.2,0,3.1,0.7c0.9,0.7,1.4,1.7,1.4,2.8c0.1,3.1,0,6.2,0,9.2s0,6.2,0,9.2
	c0,0.9,0.3,1.7,1,2.3c0.6,0.6,1.5,0.8,2.3,0.7c0.9-0.1,1.7-0.6,2.2-1.2c0.7-0.7,1.1-1.6,1.1-2.6c0-3.1,0-6.3,0-9.4s0-6.3,0-9.4
	c0-1.3,0.5-2.6,1.5-3.5c0.9-1,2-1.7,3.3-2c2.1-0.5,4.3,0.8,4.8,3c0.1,0.4,0.1,0.8,0.1,1.2c0,3.1,0,6.3,0,9.5s0,6.3,0,9.5
	c-0.1,1,0.3,1.9,1.1,2.5c0.7,0.5,1.6,0.7,2.4,0.6c1-0.1,2-0.6,2.6-1.3c0.7-0.7,1.1-1.7,1.1-2.7v-9.4c0-3.2,0-6.4,0-9.6
	c0-1.4,0.6-2.8,1.5-3.8c0.9-1.2,2.2-1.9,3.6-2.2c1.3-0.3,2.7,0,3.8,0.8c1.1,0.7,1.7,1.9,1.6,3.1v3.5c0.8-1.3,1.8-2.5,2.8-3.6
	c2-2.2,4.3-4,6.9-5.4c2.6-1.4,5.4-2.2,8.3-2.6c2.8-0.4,5.7-0.2,8.5,0.4c2.7,0.7,5.1,1.8,7.3,3.5c1.8,1.3,3.3,3,4.3,5
	C183.8,41.5,182.4,44.2,179.6,46z"/>
<g class="st1">
	<path class="st2" d="M251.6,84.3c0.6-1.9,1.2-3.8,1.8-5.7c0.6-1.9,1.2-3.8,1.8-5.7c0.2-0.5,0.3-0.8,0.6-1c0.2-0.2,0.6-0.3,0.9-0.3
		c0.2,0,0.4,0,0.6,0c0.2,0,0.4,0.1,0.6,0.1c0.1,0,0.2,0,0.2,0c0.1,0,0.1,0,0.2,0c0.5,0.1,0.8,0.2,1,0.2c0.2,0.1,0.3,0.3,0.3,0.6
		c0,0.2-0.1,0.5-0.2,0.9l-4.7,14.1c-0.1,0.2-0.1,0.4-0.2,0.6c-0.1,0.2-0.3,0.5-0.6,0.8c-0.3,0.3-0.7,0.6-1.1,0.7
		c-0.4,0.2-0.9,0.3-1.3,0.3l-0.4,0c0,0-0.1,0-0.1,0s-0.1,0-0.2,0c-0.3,0-0.7,0-1-0.1s-0.6-0.2-0.9-0.5c-0.2-0.2-0.4-0.4-0.5-0.7
		c-0.1-0.2-0.2-0.4-0.2-0.6l-0.6-1.5l-0.3,1l-0.3,0.7c-0.1,0.2-0.2,0.4-0.3,0.7c-0.1,0.3-0.3,0.5-0.6,0.8c-0.3,0.3-0.7,0.5-1.1,0.7
		c-0.4,0.1-0.9,0.2-1.3,0.3l-0.5,0c0,0-0.1,0-0.1,0c0,0,0,0-0.1,0c-0.4,0-0.7,0-1-0.1c-0.3-0.1-0.6-0.3-0.9-0.5
		c-0.3-0.2-0.5-0.5-0.6-0.7s-0.2-0.4-0.3-0.6c-0.4-1.2-0.8-2.3-1.2-3.5s-0.8-2.3-1.2-3.5l-1.8-5.3l-1.1,0.1c-0.3,0-0.5,0-0.7-0.2
		c-0.2-0.1-0.3-0.3-0.3-0.5v-1.1c0-0.1,0-0.2,0.1-0.3c0.1-0.1,0.2-0.2,0.2-0.3l0,0c0.2-0.2,0.5-0.4,0.8-0.5c0.3-0.2,0.6-0.3,1-0.4
		c0.4-0.1,0.8-0.2,1.3-0.3c0.8-0.1,1.5,0,1.9,0.2c0.4,0.2,0.6,0.5,0.7,0.8l3.6,10.7c0.3-0.8,0.5-1.7,0.8-2.5
		c0.3-0.8,0.5-1.6,0.8-2.5c-0.3-0.8-0.6-1.7-0.9-2.5c-0.3-0.9-0.6-1.7-0.9-2.6c-0.1-0.2-0.1-0.3-0.1-0.4c0-0.1-0.1-0.2-0.1-0.4
		c0-0.3,0.1-0.6,0.3-0.7c0.2-0.1,0.6-0.3,1-0.4l0.6-0.2c0.2-0.1,0.4-0.1,0.6-0.2c0.2-0.1,0.4-0.1,0.5-0.1c0.4,0,0.7,0,0.9,0.2
		c0.2,0.1,0.4,0.4,0.6,0.9L251.6,84.3z"/>
</g>
<g class="st1">
	<path class="st2" d="M268.1,85.2c0.3,0,0.7-0.1,1.1-0.2c0.4-0.1,1-0.2,1.6-0.4c0.2-0.1,0.4-0.1,0.6-0.1s0.3-0.1,0.5-0.1
		c0.4,0,0.7,0,0.8,0.2c0.2,0.2,0.3,0.5,0.6,1c0.1,0.3,0.2,0.5,0.2,0.7c0,0.5-0.3,0.8-0.8,1c-0.6,0.2-1.3,0.4-2.2,0.6
		c-0.9,0.2-2.1,0.4-3.4,0.5c-1.3,0.1-2.4,0.1-3.2-0.2c-0.4-0.1-0.8-0.3-1.1-0.5c-0.4-0.2-0.7-0.4-0.9-0.7c-1.1-1-1.6-2.5-1.6-4.4
		c0-0.9,0.2-1.8,0.5-2.6c0.3-0.8,0.8-1.5,1.3-2.1c0.4-0.4,0.8-0.8,1.2-1.1c0.4-0.3,0.8-0.5,1.3-0.7c0.5-0.2,1-0.3,1.6-0.4
		c0.6-0.1,1.3-0.2,2.1-0.2c0.2,0,0.5,0,0.9,0s0.7,0.1,1.1,0.2c0.4,0.1,0.8,0.3,1.2,0.5s0.8,0.5,1.1,0.9c0.3,0.4,0.6,0.9,0.8,1.5
		c0.2,0.6,0.3,1.4,0.3,2.3c0,0.5-0.1,0.8-0.2,1.1c-0.2,0.3-0.4,0.5-0.6,0.6c-0.2,0.1-0.5,0.2-0.7,0.3s-0.4,0.1-0.5,0.1l-7.1,0.7
		c0,0.3,0.1,0.5,0.2,0.7c0.1,0.2,0.3,0.3,0.4,0.5c0.2,0.2,0.6,0.3,1,0.4S267.3,85.3,268.1,85.2z M265.6,79.2
		c-0.5,0.3-0.8,0.9-0.9,1.8l5.5-0.5c-0.2-0.8-0.5-1.3-0.9-1.6s-1.1-0.3-1.8-0.3l-0.1,0C266.7,78.7,266.1,78.9,265.6,79.2z"/>
</g>
<g class="st1">
	<path class="st2" d="M280.3,87.3c-1.1,0.1-2.1,0.1-2.9,0.1c-0.9-0.1-1.7-0.2-2.4-0.3c-0.2,0-0.3-0.1-0.4-0.1
		c-0.1-0.1-0.2-0.2-0.2-0.5l0-15.9c0-0.4,0-0.6,0.1-0.9c0-0.2,0.1-0.4,0.3-0.5c0.1-0.1,0.3-0.2,0.6-0.2c0.3,0,0.6-0.1,1.1-0.1l0.3,0
		c0.4,0,0.8-0.1,1-0.1c0.3,0,0.4,0,0.6,0.1s0.2,0.2,0.2,0.4c0,0.2,0.1,0.5,0.1,0.8v5c0.4-0.2,0.8-0.3,1.3-0.4
		c0.5-0.1,0.9-0.2,1.4-0.2c0.3,0,0.7,0,1.1,0c0.5,0,0.9,0.1,1.4,0.2c1.2,0.3,2.2,1,2.8,1.9c0.6,0.9,0.9,2.1,0.9,3.5
		c0,0.9-0.2,1.7-0.5,2.5s-0.8,1.5-1.2,2.1c-0.5,0.6-1.1,1-1.7,1.3s-1.2,0.6-1.6,0.7C281.8,87,281.1,87.2,280.3,87.3z M278.6,78.4
		v5.8c0.1,0,0.2,0,0.3,0c0.2,0,0.4,0,0.7,0s0.5,0,0.8-0.1c0.3,0,0.6-0.1,0.9-0.1s0.4-0.1,0.6-0.2c0.3-0.2,0.6-0.4,0.8-0.7
		c0.2-0.3,0.4-0.7,0.6-1.1c0.1-0.2,0.1-0.5,0.2-0.8s0-0.7,0-1.1c0-0.4-0.1-0.8-0.2-1.1c-0.1-0.3-0.2-0.6-0.5-0.9
		c-0.2-0.2-0.4-0.3-0.6-0.4c-0.2-0.1-0.5-0.1-0.9-0.1c-0.6,0.1-1.2,0.2-2,0.5L278.6,78.4z"/>
</g>
<path class="st0" d="M289.3,5.2h2.5c0.4,0,0.9,0.1,1.3,0.4c0.3,0.2,0.4,0.6,0.4,0.9c0,0.2-0.1,0.5-0.2,0.7c-0.1,0.2-0.4,0.4-0.6,0.5
	c-0.4,0.1-0.7,0.2-1.1,0.1h-2.2V5.2z M288.3,4.3v7.8h1V8.6h1.2c0.2,0,0.4,0,0.6,0c0.2,0,0.3,0.1,0.5,0.2c0.2,0.1,0.4,0.3,0.5,0.5
	c0.3,0.3,0.5,0.7,0.7,1.1l1,1.6h1.3l-1.3-2c-0.2-0.4-0.5-0.7-0.9-1c-0.2-0.2-0.4-0.3-0.6-0.4c0.6,0,1.2-0.3,1.6-0.7
	c0.4-0.4,0.5-0.9,0.5-1.4c0-0.4-0.1-0.8-0.3-1.2c-0.2-0.3-0.5-0.6-0.9-0.7c-0.5-0.2-1-0.2-1.6-0.2L288.3,4.3z M299,8.4
	c0-4.2-3.4-7.6-7.6-7.6c-4.2,0-7.6,3.4-7.6,7.6c0,4.2,3.4,7.6,7.6,7.6C295.5,16,298.9,12.6,299,8.4L299,8.4z M284.6,8.4
	c0-3.7,3-6.7,6.7-6.7s6.7,3,6.7,6.7s-3,6.7-6.7,6.7C287.6,15.1,284.6,12.1,284.6,8.4C284.6,8.4,284.6,8.4,284.6,8.4L284.6,8.4z"/>
<path class="st0" d="M57.1,55.5c1.4-1.4,2.5-3.1,3.2-4.9c0.7-1.8,1-3.7,1-5.6c0-1.9-0.4-3.8-1.2-5.6c-0.7-1.8-1.9-3.5-3.3-4.8
	c-2.8-2.8-6.6-4.3-10.5-4.2c-1.9,0.1-3.8,0.5-5.5,1.2c-1.8,0.8-3.5,1.9-4.8,3.3L24.3,46.8c-1.4,1.4-2.5,3.1-3.2,4.9
	c-0.7,1.8-1,3.7-1,5.6c0,1.9,0.4,3.8,1.1,5.5c0.7,1.8,1.9,3.5,3.3,4.9c1.4,1.4,3.1,2.5,4.9,3.2c1.8,0.7,3.7,1,5.6,1
	c1.9,0,3.8-0.4,5.6-1.2c1.7-0.7,3.2-1.7,4.5-2.9l1.7-1.7L57.1,55.5z M46.7,42.1l4.6-4.6c0.8-0.9,2.2-0.9,3.1-0.1
	c0.9,0.8,0.9,2.2,0.1,3.1c0,0,0,0-0.1,0.1l-4.6,4.6c-0.9,0.8-2.3,0.7-3.1-0.2C46,44.2,46,42.9,46.7,42.1z M46.1,0.7
	c11.4,0,22.3,4.3,30.6,12l-9.6,9.6c-0.9,0.9-0.9,2.3,0,3.1l0,0c0.9,0.9,2.3,0.9,3.1,0l9.5-9.5C96.4,34.5,94.6,63,76,79.5
	s-47.1,14.8-63.6-3.8s-14.8-47.1,3.8-63.6C24.5,4.8,35.1,0.7,46.1,0.7z M58.6,30.2l0.2,0.2l3.5-3.5c0.8-0.9,2.2-0.9,3.1-0.1
	s0.9,2.2,0.1,3.1c0,0,0,0-0.1,0.1l-3.6,3.6c0.9,1.2,1.7,2.6,2.3,4.1c1,2.3,1.5,4.7,1.5,7.2c0,2.5-0.4,4.9-1.3,7.2
	c-0.9,2.4-2.3,4.6-4.2,6.4L50,69.1l-1.7,1.8c-1.7,1.7-3.7,3-5.9,3.9c-2.3,0.9-4.7,1.5-7.2,1.5c-2.5,0-5-0.4-7.3-1.3
	c-4.8-1.9-8.7-5.7-10.7-10.5c-1-2.3-1.5-4.7-1.5-7.2c0-2.5,0.4-4.9,1.3-7.2c0.9-2.4,2.3-4.6,4.2-6.4c3.9-4,7.7-8,11.6-11.9
	c1.8-1.9,3.9-3.3,6.3-4.3c4.6-1.9,9.8-2,14.5-0.2C55.3,28,57.1,29,58.6,30.2z"/>
</svg>
