<svg id="Capa_1" data-name="Capa 1" xmlns="http://www.w3.org/2000/svg" viewBox="0 0 300 91.25"><defs><style>.cls-1,.cls-2{fill:#944b96;}.cls-1{fill-rule:evenodd;}</style></defs><path class="cls-1" d="M192.87,47.71a8.16,8.16,0,0,0,1,4,8.68,8.68,0,0,0,2.59,2.94,10.93,10.93,0,0,0,3.89,1.7,13.18,13.18,0,0,0,4.62.25,15.09,15.09,0,0,0,5-1.42,15.93,15.93,0,0,0,4-2.82,13.06,13.06,0,0,0,2.69-3.79,10,10,0,0,0,1-4.31,8,8,0,0,0-1.06-4,8.85,8.85,0,0,0-2.79-3,10.51,10.51,0,0,0-4-1.61,13.7,13.7,0,0,0-4.83,0,15.4,15.4,0,0,0-4.82,1.61,15.24,15.24,0,0,0-3.83,2.81,12.36,12.36,0,0,0-2.48,3.59,9.44,9.44,0,0,0-.9,4.05m59.95,3.19a20.72,20.72,0,0,0,5.93-1.57,18.29,18.29,0,0,0,4.89-3.07,15.55,15.55,0,0,0,3.4-4.18,10,10,0,0,0,1.26-4.91A7.78,7.78,0,0,0,267,32.85a10.81,10.81,0,0,0-3.52-3.29,14,14,0,0,0-5-1.79,17.49,17.49,0,0,0-5.82,0,18.73,18.73,0,0,0-5.58,1.82,20.2,20.2,0,0,0-4.62,3.22,14.81,14.81,0,0,0-3.14,4.11,9.75,9.75,0,0,0-1.12,4.42,7.8,7.8,0,0,0,1.24,4.22,10.12,10.12,0,0,0,3.23,3.18,14.87,14.87,0,0,0,4.63,1.89A16.21,16.21,0,0,0,252.82,50.9ZM204.88,23.38a29.49,29.49,0,0,1,10.54-.15,24.32,24.32,0,0,1,9.08,3.41A23.15,23.15,0,0,1,227.59,29a36.73,36.73,0,0,1,7.81-7.47,43,43,0,0,1,17.41-7.25l1.93-.36c.57-.11,1.2-.18,1.85-.24a38.16,38.16,0,0,1,11.8.57,28.54,28.54,0,0,1,9.92,4,22.26,22.26,0,0,1,6.81,7,17.71,17.71,0,0,1,2.55,9.26c0,6.51.08,13,.11,19.55,0,2-.95,3.78-3,5.37a12.73,12.73,0,0,1-6.76,2.7q-5.16.45-8.2-2.69a9.41,9.41,0,0,0-1.27.6c-.37.21-.75.41-1.15.59a50.62,50.62,0,0,1-6.9,2.43A44.69,44.69,0,0,1,253,64.35a34.58,34.58,0,0,1-17.46-2.49,25.5,25.5,0,0,1-7.65-5.07,30.31,30.31,0,0,1-3,3.22A32.76,32.76,0,0,1,215.82,66,33.46,33.46,0,0,1,205,68.75a29.27,29.27,0,0,1-12.06-1.2c0,3.51,0,7,0,10.53a5.7,5.7,0,0,1-2,4.24,7.48,7.48,0,0,1-4.87,2,6.71,6.71,0,0,1-4.5-1.3,4.56,4.56,0,0,1-2-3.75c-.07-4.94,0-9.92,0-14.87s0-9.91,0-14.86a21,21,0,0,1,2.13-9,28.78,28.78,0,0,1,5.09-7.34,33.81,33.81,0,0,1,8-6.19A32.54,32.54,0,0,1,204.88,23.38Z"/><path class="cls-1" d="M104.6,24.77c2.72-.61,5,1.31,5,4.29a6.74,6.74,0,0,1-5,6.4c-2.73.53-4.86-1.41-4.85-4.31a6.72,6.72,0,0,1,4.87-6.38m61.69,15.49a11.74,11.74,0,0,0-4.52-.83,10.81,10.81,0,0,0-4.69,1.22,11.58,11.58,0,0,0-3.91,3,13,13,0,0,0-2.24,4.07ZM179.55,46a11.62,11.62,0,0,1-1.48.8c-8.08,3.7-15.81,7.27-23.3,10.72a9.74,9.74,0,0,0,9.13.07,11.19,11.19,0,0,0,2.28-1.3A13.31,13.31,0,0,0,167.66,55c.41-.44.84-.84,1.27-1.22a6,6,0,0,1,1.66-1,7,7,0,0,1,3.67-.54,6,6,0,0,1,3,1.21A4.67,4.67,0,0,1,178.92,56a4.6,4.6,0,0,1-.45,3.49A15.16,15.16,0,0,1,174,64.29,36.51,36.51,0,0,1,168,67.68a20.9,20.9,0,0,1-8.52,2,22,22,0,0,1-8-1.25,18.7,18.7,0,0,1-6.52-4,15.84,15.84,0,0,1-2.3-2.65c-.12.28-.23.56-.35.83a15.68,15.68,0,0,1-3.21,4.79,17.47,17.47,0,0,1-4.6,3.38,14.63,14.63,0,0,1-5.33,1.55,11.9,11.9,0,0,1-8.48-2.24,13.59,13.59,0,0,1-3.88,2.63,13.32,13.32,0,0,1-4.21,1.1,11,11,0,0,1-8.74-3,11.1,11.1,0,0,1-2.54-3.76,12.2,12.2,0,0,1-.92-4.73l0-9c0-3,.06-6,0-9a4.67,4.67,0,0,1,.31-1.86,6.54,6.54,0,0,1,1-1.7,5.77,5.77,0,0,1,1.41-1.29,5.08,5.08,0,0,1,1.76-.7,3.57,3.57,0,0,1,3.06.73,3.66,3.66,0,0,1,1.41,2.83c.07,3.07,0,6.16,0,9.23s0,6.17,0,9.24a3.07,3.07,0,0,0,1,2.34,2.73,2.73,0,0,0,2.28.71,3.64,3.64,0,0,0,2.23-1.21,3.8,3.8,0,0,0,1.08-2.59c0-3.14,0-6.28,0-9.41s0-6.27,0-9.4a5,5,0,0,1,1.47-3.48,6,6,0,0,1,3.32-2,4,4,0,0,1,4.93,4.13c0,3.14,0,6.3,0,9.45s0,6.3,0,9.45a2.79,2.79,0,0,0,1.12,2.48,3.45,3.45,0,0,0,2.4.62,4.11,4.11,0,0,0,2.64-1.35,3.85,3.85,0,0,0,1.07-2.66V48.46c0-3.21,0-6.43,0-9.63A5.83,5.83,0,0,1,134.42,35a6.27,6.27,0,0,1,3.65-2.24,4.81,4.81,0,0,1,3.78.75,3.61,3.61,0,0,1,1.65,3.11v3.52a29.08,29.08,0,0,1,2.77-3.63,24.86,24.86,0,0,1,6.95-5.39,23.14,23.14,0,0,1,8.31-2.56A23.74,23.74,0,0,1,170,29a20.51,20.51,0,0,1,7.34,3.46,15.25,15.25,0,0,1,4.34,5C183.78,41.53,182.45,44.24,179.55,46Z"/><path class="cls-2" d="M251.49,84.25c.6-1.9,1.22-3.81,1.84-5.73s1.23-3.82,1.83-5.72a2,2,0,0,1,.58-1,1.74,1.74,0,0,1,.94-.35,2.81,2.81,0,0,1,.57,0l.62.08.24,0a1.19,1.19,0,0,0,.24,0,5.65,5.65,0,0,1,1,.23c.2.08.29.27.29.57a3.11,3.11,0,0,1-.16.89l-4.69,14.17c-.06.19-.14.4-.24.65A2.5,2.5,0,0,1,254,89a3.42,3.42,0,0,1-1.14.73,4.55,4.55,0,0,1-1.31.31l-.42,0h-.29a4.42,4.42,0,0,1-1-.12,1.83,1.83,0,0,1-.91-.5,2.26,2.26,0,0,1-.53-.67,2.64,2.64,0,0,1-.23-.62l-.56-1.54-.34,1-.25.72a4.9,4.9,0,0,1-.3.67,4.39,4.39,0,0,1-.58.84,3.18,3.18,0,0,1-1.09.68,5,5,0,0,1-1.34.29l-.53.06h-.09s0,0-.05,0a3.56,3.56,0,0,1-1-.13,2.66,2.66,0,0,1-1.46-1.18,4.33,4.33,0,0,1-.25-.6l-1.2-3.45c-.41-1.16-.8-2.31-1.2-3.46l-1.81-5.25-1.1.1a.91.91,0,0,1-.66-.15.59.59,0,0,1-.27-.52V75.13a.74.74,0,0,1,.12-.33.61.61,0,0,1,.22-.28h0a5.54,5.54,0,0,1,.82-.53,4.92,4.92,0,0,1,1-.43,6.15,6.15,0,0,1,1.32-.27,3.34,3.34,0,0,1,1.86.21,1.43,1.43,0,0,1,.73.8L243.65,85c.26-.84.52-1.67.79-2.48s.52-1.65.79-2.49c-.31-.82-.61-1.67-.92-2.54s-.6-1.71-.86-2.55c-.06-.17-.1-.31-.14-.44a1.15,1.15,0,0,1-.06-.37.78.78,0,0,1,.33-.7,3.72,3.72,0,0,1,1-.43l.56-.18.63-.2a2.07,2.07,0,0,1,.53-.12,1.44,1.44,0,0,1,.94.16,1.53,1.53,0,0,1,.58.86Z"/><path class="cls-2" d="M268.1,85.19l1.14-.19c.45-.08,1-.21,1.57-.38l.58-.14a2.61,2.61,0,0,1,.46-.08.87.87,0,0,1,.82.23,7.24,7.24,0,0,1,.6,1,1.8,1.8,0,0,1,.19.7c0,.46-.28.79-.83,1a18.76,18.76,0,0,1-2.19.64,23.31,23.31,0,0,1-3.36.53,8.35,8.35,0,0,1-3.15-.17,7.14,7.14,0,0,1-1.12-.46,3.68,3.68,0,0,1-.95-.67,5.67,5.67,0,0,1-1.6-4.37,6.75,6.75,0,0,1,.49-2.57A6.91,6.91,0,0,1,262,78.18a10,10,0,0,1,1.21-1.1,5.41,5.41,0,0,1,1.31-.74,8.75,8.75,0,0,1,1.61-.44c.59-.1,1.28-.19,2.07-.25a7.77,7.77,0,0,1,.86,0,5.5,5.5,0,0,1,2.35.67,3.82,3.82,0,0,1,1.1.93,4.68,4.68,0,0,1,.8,1.51,7.09,7.09,0,0,1,.31,2.26,2.16,2.16,0,0,1-.24,1.1,1.79,1.79,0,0,1-.58.61,1.92,1.92,0,0,1-.67.28l-.51.09-7.11.68a1.34,1.34,0,0,0,.21.7,1.68,1.68,0,0,0,.41.46,1.81,1.81,0,0,0,1,.36A8.11,8.11,0,0,0,268.1,85.19Zm-2.51-6a2.58,2.58,0,0,0-.93,1.75l5.47-.53a2,2,0,0,0-.93-1.57,3.19,3.19,0,0,0-1.78-.26h-.05A3.56,3.56,0,0,0,265.59,79.2Z"/><path class="cls-2" d="M280.28,87.23a15.49,15.49,0,0,1-2.92.08A22.46,22.46,0,0,1,275,87a.85.85,0,0,1-.38-.11c-.1-.07-.16-.24-.16-.53l0-15.9a3.79,3.79,0,0,1,.07-.85.75.75,0,0,1,.28-.47,1.44,1.44,0,0,1,.62-.23l1.06-.12.28,0c.41,0,.75-.07,1-.07a.92.92,0,0,1,.57.11.62.62,0,0,1,.24.42,5.67,5.67,0,0,1,.05.84v5a8.19,8.19,0,0,1,1.27-.4,10.29,10.29,0,0,1,1.44-.24c.3,0,.68,0,1.13,0a5.57,5.57,0,0,1,1.41.22,4.74,4.74,0,0,1,2.77,1.93,6.27,6.27,0,0,1,.93,3.53,6.45,6.45,0,0,1-.51,2.52,8.57,8.57,0,0,1-1.24,2.12,5.63,5.63,0,0,1-1.69,1.36,10.48,10.48,0,0,1-1.64.7A11.27,11.27,0,0,1,280.28,87.23Zm-1.7-8.86v5.78a1,1,0,0,0,.29,0,5,5,0,0,0,.67,0l.79-.07a5.32,5.32,0,0,0,.86-.14,5.08,5.08,0,0,0,.55-.16,2.41,2.41,0,0,0,.81-.73,4.16,4.16,0,0,0,.55-1.14,5,5,0,0,0,.17-.84,9.73,9.73,0,0,0,0-1.11,4.89,4.89,0,0,0-.17-1.09,2.51,2.51,0,0,0-.46-.85,1.12,1.12,0,0,0-.62-.4,2.27,2.27,0,0,0-.84,0,7.57,7.57,0,0,0-2,.52Z"/><path class="cls-1" d="M289.26,5.16h2.46a1.86,1.86,0,0,1,1.26.36,1.16,1.16,0,0,1,.39.9,1.3,1.3,0,0,1-.2.7,1.18,1.18,0,0,1-.6.47,3.54,3.54,0,0,1-1.1.14h-2.21Zm-1-.85v7.76h1V8.62h1.19a2.54,2.54,0,0,1,.57,0,1.75,1.75,0,0,1,.47.2,2.3,2.3,0,0,1,.52.52,11.21,11.21,0,0,1,.74,1.08l1,1.61h1.28L293.72,10a5.39,5.39,0,0,0-.85-1,2.94,2.94,0,0,0-.62-.38,2.76,2.76,0,0,0,1.65-.72,2,2,0,0,0,.54-1.4,2.2,2.2,0,0,0-.33-1.17,1.7,1.7,0,0,0-.86-.73,4.55,4.55,0,0,0-1.58-.21Zm10.7,4.05A7.64,7.64,0,1,0,291.29,16,7.64,7.64,0,0,0,298.93,8.36Zm-14.33,0a6.69,6.69,0,1,1,6.69,6.69A6.68,6.68,0,0,1,284.6,8.36Z"/><path class="cls-1" d="M57.1,55.52a14.43,14.43,0,0,0,3.17-4.94,15.51,15.51,0,0,0,1-5.59,14.91,14.91,0,0,0-1.16-5.59,14.13,14.13,0,0,0-3.3-4.85,14.5,14.5,0,0,0-10.54-4.2,15.81,15.81,0,0,0-5.55,1.18,14.39,14.39,0,0,0-4.85,3.31L24.27,46.76a14.48,14.48,0,0,0-3.18,4.91,15.43,15.43,0,0,0-1,5.58,14.48,14.48,0,0,0,1.13,5.54,14,14,0,0,0,3.31,4.87,14.27,14.27,0,0,0,4.93,3.18,15.16,15.16,0,0,0,5.61,1,14.9,14.9,0,0,0,5.58-1.16,14,14,0,0,0,4.52-2.95L46.87,66ZM46.72,42.07l4.63-4.64a2.21,2.21,0,1,1,3.13,3.12l-4.64,4.64a2.21,2.21,0,0,1-3.12-3.12ZM46.13.72a44.88,44.88,0,0,1,30.63,12L67.2,22.3a2.21,2.21,0,0,0,0,3.12h0a2.21,2.21,0,0,0,3.12,0l9.53-9.53A45.06,45.06,0,1,1,46.13.72ZM58.6,30.23l.24.25,3.5-3.5a2.21,2.21,0,1,1,3.13,3.12l-3.56,3.56a18.34,18.34,0,0,1,2.31,4.06,19.2,19.2,0,0,1,1.49,7.2,20,20,0,0,1-1.33,7.25,18.59,18.59,0,0,1-4.15,6.41L50,69.09l-1.74,1.77a18.73,18.73,0,0,1-5.94,3.92,19.65,19.65,0,0,1-7.21,1.49A19.32,19.32,0,0,1,27.83,75,19.53,19.53,0,0,1,17.13,64.5a19.11,19.11,0,0,1-1.52-7.23,19.42,19.42,0,0,1,1.33-7.22,18.64,18.64,0,0,1,4.16-6.38q5.8-6,11.63-11.92A18.69,18.69,0,0,1,39,27.42a19.21,19.21,0,0,1,14.47-.17A18.39,18.39,0,0,1,58.6,30.23Z"/></svg>